<?xml version="1.0" encoding="UTF-8" standalone="no"?>
<!DOCTYPE svg PUBLIC "-//W3C//DTD SVG 1.1//EN"
 "http://www.w3.org/Graphics/SVG/1.1/DTD/svg11.dtd">
<!-- Generated by graphviz version 2.40.1 (20161225.0304)
 -->
<!-- Title: dependencies Pages: 1 -->
<svg width="504pt" height="284pt"
 viewBox="0.00 0.00 504.00 284.00" xmlns="http://www.w3.org/2000/svg" xmlns:xlink="http://www.w3.org/1999/xlink">
<g id="graph0" class="graph" transform="scale(1 1) rotate(0) translate(4 280)">
<title>dependencies</title>
<polygon fill="#ffffff" stroke="transparent" points="-4,4 -4,-280 500,-280 500,4 -4,4"/>
<text text-anchor="start" x="227.0091" y="-42.4" font-family="sans-serif" font-weight="bold" font-size="14.00" fill="#000000">Legend</text>
<polygon fill="#ffffb3" stroke="transparent" points="14,-10 14,-30 34,-30 34,-10 14,-10"/>
<text text-anchor="start" x="37.629" y="-15.4" font-family="sans-serif" font-size="14.00" fill="#000000"> &#160;Declarations</text>
<polygon fill="#8dd3c7" stroke="transparent" points="127,-10 127,-30 147,-30 147,-10 127,-10"/>
<text text-anchor="start" x="150.7251" y="-15.4" font-family="sans-serif" font-size="14.00" fill="#000000"> &#160;Module</text>
<polygon fill="#80b1d3" stroke="transparent" points="213,-10 213,-30 233,-30 233,-10 213,-10"/>
<text text-anchor="start" x="236.7812" y="-15.4" font-family="sans-serif" font-size="14.00" fill="#000000"> &#160;Bootstrap</text>
<polygon fill="#fdb462" stroke="transparent" points="310,-10 310,-30 330,-30 330,-10 310,-10"/>
<text text-anchor="start" x="333.6732" y="-15.4" font-family="sans-serif" font-size="14.00" fill="#000000"> &#160;Providers</text>
<polygon fill="#fb8072" stroke="transparent" points="406,-10 406,-30 426,-30 426,-10 406,-10"/>
<text text-anchor="start" x="429.7258" y="-15.4" font-family="sans-serif" font-size="14.00" fill="#000000"> &#160;Exports</text>
<g id="clust1" class="cluster">
<title>cluster_NgxEchartsCoreModule</title>
<polygon fill="none" stroke="#000000" stroke-dasharray="1,5" points="61,-70 61,-268 257,-268 257,-70 61,-70"/>
</g>
<g id="clust2" class="cluster">
<title>cluster_NgxEchartsCoreModule_declarations</title>
<polygon fill="none" stroke="#000000" points="70,-78 70,-130 248,-130 248,-78 70,-78"/>
</g>
<g id="clust5" class="cluster">
<title>cluster_NgxEchartsCoreModule_exports</title>
<polygon fill="none" stroke="#000000" points="69,-208 69,-260 249,-260 249,-208 69,-208"/>
</g>
<g id="clust8" class="cluster">
<title>cluster_NgxEchartsModule</title>
<polygon fill="none" stroke="#000000" stroke-dasharray="1,5" points="265,-70 265,-268 435,-268 435,-70 265,-70"/>
</g>
<g id="clust9" class="cluster">
<title>cluster_NgxEchartsModule_declarations</title>
<polygon fill="none" stroke="#000000" points="275,-78 275,-130 425,-130 425,-78 275,-78"/>
</g>
<g id="clust12" class="cluster">
<title>cluster_NgxEchartsModule_exports</title>
<polygon fill="none" stroke="#000000" points="273,-208 273,-260 427,-260 427,-208 273,-208"/>
</g>
<!-- NgxEchartsCoreDirective -->
<g id="node1" class="node">
<title>NgxEchartsCoreDirective</title>
<polygon fill="#ffffb3" stroke="#000000" points="239.8792,-122 78.1208,-122 78.1208,-86 239.8792,-86 239.8792,-122"/>
<text text-anchor="middle" x="159" y="-99.8" font-family="Times,serif" font-size="14.00" fill="#000000">NgxEchartsCoreDirective</text>
</g>
<!-- NgxEchartsCoreModule -->
<g id="node2" class="node">
<title>NgxEchartsCoreModule</title>
<polygon fill="#8dd3c7" stroke="#000000" points="235.3459,-187 232.3459,-191 211.3459,-191 208.3459,-187 82.6541,-187 82.6541,-151 235.3459,-151 235.3459,-187"/>
<text text-anchor="middle" x="159" y="-164.8" font-family="Times,serif" font-size="14.00" fill="#000000">NgxEchartsCoreModule</text>
</g>
<!-- NgxEchartsCoreDirective&#45;&gt;NgxEchartsCoreModule -->
<g id="edge1" class="edge">
<title>NgxEchartsCoreDirective&#45;&gt;NgxEchartsCoreModule</title>
<path fill="none" stroke="#000000" d="M159,-122.1061C159,-122.1061 159,-140.991 159,-140.991"/>
<polygon fill="#000000" stroke="#000000" points="155.5001,-140.9909 159,-150.991 162.5001,-140.991 155.5001,-140.9909"/>
</g>
<!-- NgxEchartsCoreDirective  -->
<g id="node3" class="node">
<title>NgxEchartsCoreDirective </title>
<polygon fill="#fb8072" stroke="#000000" points="241.3788,-252 76.6212,-252 76.6212,-216 241.3788,-216 241.3788,-252"/>
<text text-anchor="middle" x="159" y="-229.8" font-family="Times,serif" font-size="14.00" fill="#000000">NgxEchartsCoreDirective </text>
</g>
<!-- NgxEchartsCoreModule&#45;&gt;NgxEchartsCoreDirective  -->
<g id="edge2" class="edge">
<title>NgxEchartsCoreModule&#45;&gt;NgxEchartsCoreDirective </title>
<path fill="none" stroke="#000000" stroke-dasharray="5,2" d="M159,-187.1061C159,-187.1061 159,-205.991 159,-205.991"/>
<polygon fill="#000000" stroke="#000000" points="155.5001,-205.9909 159,-215.991 162.5001,-205.991 155.5001,-205.9909"/>
</g>
<!-- NgxEchartsDirective -->
<g id="node4" class="node">
<title>NgxEchartsDirective</title>
<polygon fill="#ffffb3" stroke="#000000" points="417.1671,-122 282.8329,-122 282.8329,-86 417.1671,-86 417.1671,-122"/>
<text text-anchor="middle" x="350" y="-99.8" font-family="Times,serif" font-size="14.00" fill="#000000">NgxEchartsDirective</text>
</g>
<!-- NgxEchartsModule -->
<g id="node5" class="node">
<title>NgxEchartsModule</title>
<polygon fill="#8dd3c7" stroke="#000000" points="412.6345,-187 409.6345,-191 388.6345,-191 385.6345,-187 287.3655,-187 287.3655,-151 412.6345,-151 412.6345,-187"/>
<text text-anchor="middle" x="350" y="-164.8" font-family="Times,serif" font-size="14.00" fill="#000000">NgxEchartsModule</text>
</g>
<!-- NgxEchartsDirective&#45;&gt;NgxEchartsModule -->
<g id="edge3" class="edge">
<title>NgxEchartsDirective&#45;&gt;NgxEchartsModule</title>
<path fill="none" stroke="#000000" d="M350,-122.1061C350,-122.1061 350,-140.991 350,-140.991"/>
<polygon fill="#000000" stroke="#000000" points="346.5001,-140.9909 350,-150.991 353.5001,-140.991 346.5001,-140.9909"/>
</g>
<!-- NgxEchartsDirective  -->
<g id="node6" class="node">
<title>NgxEchartsDirective </title>
<polygon fill="#fb8072" stroke="#000000" points="418.6674,-252 281.3326,-252 281.3326,-216 418.6674,-216 418.6674,-252"/>
<text text-anchor="middle" x="350" y="-229.8" font-family="Times,serif" font-size="14.00" fill="#000000">NgxEchartsDirective </text>
</g>
<!-- NgxEchartsModule&#45;&gt;NgxEchartsDirective  -->
<g id="edge4" class="edge">
<title>NgxEchartsModule&#45;&gt;NgxEchartsDirective </title>
<path fill="none" stroke="#000000" stroke-dasharray="5,2" d="M350,-187.1061C350,-187.1061 350,-205.991 350,-205.991"/>
<polygon fill="#000000" stroke="#000000" points="346.5001,-205.9909 350,-215.991 353.5001,-205.991 346.5001,-205.9909"/>
</g>
</g>
</svg>
